<?xml version="1.0" encoding="UTF-8"?>
<svg width="126px" height="30px" viewBox="0 0 126 30" version="1.1" xmlns="http://www.w3.org/2000/svg" xmlns:xlink="http://www.w3.org/1999/xlink">
    <!-- Generator: Sketch 52.2 (67145) - http://www.bohemiancoding.com/sketch -->
    <title>H3BPM Logo</title>
    <desc>Created with Sketch.</desc>
    <g id="登录页" stroke="none" stroke-width="1" fill="none" fill-rule="evenodd">
        <g id="登陆页" transform="translate(-24.000000, -17.000000)">
            <g id="分组">
                <g id="H3BPM-Logo" transform="translate(24.000000, 17.000000)">
                    <g id="Group">
                        <polygon id="Fill-1" fill="#002638" points="10.7573334 19.2426666 12.0000425 19.2426666 12.0000425 24.0000849 6.00012741 24.0000849 6.00012741 15.7498301 0 15.7498301 0 30 30 30 30 15.7498301 23.9998726 15.7498301 23.9998726 17.9997452 23.9998726 24.0000849 17.9999575 24.0000849 17.9999575 19.2426666 19.2424543 19.2426666 15 15"></polygon>
                        <polygon id="Fill-2" fill="#9ED000" points="0 0 0 14.2497452 6.00012741 14.2497452 6.00012741 5.99991506 12.0000425 5.99991506 12.0000425 10.757121 10.7573334 10.757121 15.0002124 15 19.2426666 10.757121 17.9999575 10.757121 17.9999575 5.99991506 24.0000849 5.99991506 24.0000849 11.9996178 24.0000849 14.2497452 30 14.2497452 30 0"></polygon>
                    </g>
                    <g id="Group-2" transform="translate(35.806452, 5.806452)" fill="#002638">
                        <path d="M42.8611922,3.68198222 L38.0322981,3.68198222 L38.0322981,7.35255727 L42.8611922,7.35255727 C43.3674164,7.35255727 43.8290112,7.14786188 44.1637313,6.81895503 L44.1707444,6.81198398 C44.5010015,6.47990848 44.7075716,6.02045286 44.7075716,5.51726975 C44.7075716,5.0134529 44.5010015,4.55463102 44.1707444,4.22255552 L44.1637313,4.21495074 C43.8290112,3.88667762 43.3674164,3.68198222 42.8611922,3.68198222 Z M42.8611922,0 C44.3843277,0 45.7703873,0.620423511 46.775185,1.61855122 L46.7821981,1.626156 C47.7876333,2.62491745 48.4111689,4.00265056 48.4111689,5.51726975 C48.4111689,6.48371087 48.1574192,7.39374985 47.7117634,8.1859147 C48.0738986,8.41025578 48.4073435,8.67388825 48.7069976,8.97237596 L48.7069976,8.97871328 C49.7111577,9.97810845 50.3359684,11.3552078 50.3359684,12.869827 C50.3359684,14.3844462 49.7111577,15.7621793 48.7069976,16.7615745 L48.7069976,16.7679118 C47.7022,17.7666733 46.3129526,18.3870968 44.7853541,18.3870968 L34.3280632,18.3870968 L34.3280632,0 L42.8611922,0 Z M38.0322981,14.7057483 L44.7853541,14.7057483 C45.2915783,14.7057483 45.7525356,14.4978842 46.0878932,14.165175 L46.091081,14.1683436 C46.4245259,13.8350007 46.6317335,13.3755451 46.6317335,12.869827 C46.6317335,12.364109 46.4245259,11.9046534 46.091081,11.5713104 L46.0878932,11.5751128 C45.7525356,11.2417698 45.2915783,11.0345395 44.7853541,11.0345395 L38.0322981,11.0345395 L38.0322981,14.7057483 Z" id="Fill-3"></path>
                        <path d="M57.4406809,3.68439497 L57.4406809,9.10127998 L63.438545,9.10127998 C64.1937271,9.10127998 64.8783913,8.79815764 65.3707342,8.31176677 L65.3707342,8.304157 C65.8675645,7.8133271 66.1759199,7.13542379 66.1759199,6.39283747 C66.1759199,5.64961701 65.8675645,4.97234785 65.3707342,4.48151795 L65.3707342,4.47454233 C64.8783913,3.98751731 64.1937271,3.68439497 63.438545,3.68439497 L57.4406809,3.68439497 Z M63.438545,0 C65.2111074,0 66.8259663,0.720391169 68.0004091,1.87961217 L68.0042555,1.87644143 C69.1742108,3.03439414 69.9011858,4.63244497 69.9011858,6.39283747 C69.9011858,8.15259583 69.1742108,9.75128081 68.0042555,10.9092335 L68.0004091,10.9054286 C66.8259663,12.0652838 65.2111074,12.7856749 63.438545,12.7856749 L57.4406809,12.7856749 L57.4406809,18.3870968 L53.7160561,18.3870968 C53.7160561,12.2586987 53.715415,6.12903226 53.715415,0 L63.438545,0 Z" id="Fill-5"></path>
                        <polygon id="Fill-7" points="81.284585 11.1602832 76.2754544 5.85702126 76.2754544 18.3870968 72.56917 18.3870968 72.56917 0 75.8192669 0 81.284585 5.78653125 86.7499031 0 90 0 90 18.3870968 86.2930775 18.3870968 86.2930775 5.85702126"></polygon>
                        <polygon id="Fill-9" points="0 18.3870968 3.73517787 18.3870968 3.73517787 0 0 0"></polygon>
                        <polygon id="Fill-11" points="12.6284585 18.3870968 16.3636364 18.3870968 16.3636364 0 12.6284585 0"></polygon>
                        <polygon id="Fill-12" points="3.02371542 10.9615385 14.229249 10.9615385 14.229249 7.24875931 3.02371542 7.24875931"></polygon>
                        <path d="M23.8336717,3.00558313 C24.9138832,3.00558313 25.8928648,3.44179155 26.6008326,4.14481943 C27.3088003,4.84912091 27.7470356,5.82215225 27.7470356,6.89452449 C27.7470356,7.96817033 27.3088003,8.94120167 26.6008326,9.64550315 C25.8928648,10.348531 24.9138832,10.7847395 23.8336717,10.7847395 C22.7534603,10.7847395 21.7744787,10.348531 21.0671516,9.64550315 C20.3585432,8.94120167 19.9209486,7.96817033 19.9209486,6.89452449 L22.4023596,6.89452449 C22.4023596,7.28870407 22.563174,7.64403881 22.821374,7.90130626 C23.079574,8.15857371 23.4383631,8.31777387 23.8336717,8.31777387 C24.2296211,8.31777387 24.5877695,8.15857371 24.8459695,7.90130626 C25.1048102,7.64403881 25.2649839,7.28870407 25.2649839,6.89452449 C25.2649839,6.50161851 25.1048102,6.14628377 24.8459695,5.88837952 C24.5877695,5.63174887 24.2296211,5.47191191 23.8336717,5.47191191 L23.8336717,3.00558313 Z" id="Fill-13"></path>
                        <polygon id="Fill-14" points="20.2766798 0 27.0355731 0 27.0355731 1.34918695 23.6532938 6.01116625 21.8346812 4.73735642 23.5796428 2.14729753 20.2766798 2.14729753"></polygon>
                    </g>
                </g>
            </g>
        </g>
    </g>
</svg>