<?xml version="1.0" encoding="UTF-8"?>
<svg width="44px" height="44px" viewBox="0 0 44 44" version="1.1" xmlns="http://www.w3.org/2000/svg" xmlns:xlink="http://www.w3.org/1999/xlink">
    <!-- Generator: Sketch 53.1 (72631) - https://sketchapp.com -->
    <title>qrcode-o copy</title>
    <desc>Created with Sketch.</desc>
    <defs>
        <polygon id="path-1" points="0 0 44 0 44 44"></polygon>
        <polygon id="path-3" points="0 0 44 44 0 44"></polygon>
        <filter x="-36.4%" y="-40.9%" width="172.7%" height="172.7%" filterUnits="objectBoundingBox" id="filter-4">
            <feOffset dx="0" dy="-2" in="SourceAlpha" result="shadowOffsetOuter1"></feOffset>
            <feGaussianBlur stdDeviation="5" in="shadowOffsetOuter1" result="shadowBlurOuter1"></feGaussianBlur>
            <feColorMatrix values="0 0 0 0 0   0 0 0 0 0   0 0 0 0 0  0 0 0 0.2 0" type="matrix" in="shadowBlurOuter1"></feColorMatrix>
        </filter>
    </defs>
    <g id="登录页" stroke="none" stroke-width="1" fill="none" fill-rule="evenodd">
        <g id="画板" transform="translate(-376.000000, -184.000000)">
            <g id="qrcode-o-copy" transform="translate(376.000000, 184.000000)">
                <mask id="mask-2" fill="white">
                    <use xlink:href="#path-1"></use>
                </mask>
                <g id="Mask"></g>
                <g id="矩形" mask="url(#mask-2)">
                    <use fill="black" fill-opacity="1" filter="url(#filter-4)" xlink:href="#path-3"></use>
                    <use fill="#FFFFFF" fill-rule="evenodd" xlink:href="#path-3"></use>
                </g>
                <g id="qrcode-o" mask="url(#mask-2)" fill-rule="nonzero">
                    <g transform="translate(10.000000, 0.000000)">
                        <rect id="矩形" fill="#000000" opacity="0" x="0" y="0" width="34" height="34"></rect>
                        <path d="M30.0488281,16.8031055 L31.875,16.8031055 L31.875,19.0585938 L29.6195117,19.0585938 L29.6195117,17.2324219 L28.2226562,17.2324219 L28.2226562,19.0585938 L20.8847656,19.0585938 L20.8847656,20.453125 L22.7109375,20.453125 L22.7109375,22.7109375 L18.6289453,22.7109375 L18.6289453,19.0585938 L16.8027734,19.0585938 L16.8027734,16.8031055 L22.2792969,16.8031055 L22.2792969,15.3710547 L15.3710547,15.3710547 L15.3710547,17.2324219 L11.7207031,17.2324219 L11.7207031,20.8847656 L9.46289062,20.8847656 L9.46289062,17.2324219 L7.63671875,17.2324219 L7.63671875,15.40625 L4.38048828,15.40625 L4.38048828,17.2324219 L2.125,17.2324219 L2.125,14.9772656 L3.95117188,14.9772656 L3.95117188,13.1152344 L8.06835938,13.1152344 L8.06835938,14.9769336 L9.46289062,14.9769336 L9.46289062,13.1152344 L11.7207031,13.1152344 L11.7207031,14.9769336 L14.9414062,14.9769336 L14.9414062,13.1152344 L16.8031055,13.1152344 L16.8031055,9.89453125 L14.9414062,9.89453125 L14.9414062,5.77734375 L16.8031055,5.77734375 L16.8031055,4.3828125 L13.1152344,4.3828125 L13.1152344,2.125 L19.0585938,2.125 L19.0585938,3.95117188 L20.8847656,3.95117188 L20.8847656,6.20666016 L19.0585938,6.20666016 L19.0585938,8.06835938 L17.2324219,8.06835938 L17.2324219,9.46289062 L19.0585938,9.46289062 L19.0585938,13.1152344 L24.5371094,13.1152344 L24.5371094,16.8031055 L27.794668,16.8031055 L27.794668,13.1152344 L30.0488281,13.1152344 L30.0488281,16.8031055 Z M2.73361328,11.1107617 C2.32787109,10.7054622 2.125,10.228112 2.125,9.67871094 L2.125,4.16699219 C2.125,3.61825521 2.32787109,3.14090495 2.73361328,2.73494141 C3.13935547,2.32897786 3.61670573,2.12566406 4.16566406,2.125 L9.67738281,2.125 C10.2261198,2.125 10.7034701,2.32787109 11.1094336,2.73361328 C11.5153971,3.13935547 11.7191536,3.61670573 11.7207031,4.16566406 L11.7207031,9.67738281 C11.7207031,10.2270052 11.517832,10.7043555 11.1120898,11.1094336 C10.7063477,11.5145117 10.2285547,11.7182682 9.67871094,11.7207031 L4.16699219,11.7207031 C3.61670573,11.7207031 3.13891276,11.5173893 2.73361328,11.1107617 Z M2.125,20.8847656 L4.38048828,20.8847656 L4.38048828,18.6289453 L2.125,18.6289453 L2.125,20.8847656 Z M11.1107617,22.8895703 C11.5173893,23.2955339 11.7207031,23.7727734 11.7207031,24.3212891 L11.7207031,29.8330078 C11.7207031,30.4058724 11.517832,30.8891992 11.1120898,31.2829883 C10.7063477,31.6767773 10.2285547,31.8741146 9.67871094,31.875 L4.16699219,31.875 C3.61736979,31.875 3.14001953,31.6781055 2.73494141,31.2843164 C2.32986328,30.8905273 2.12654948,30.4072005 2.125,29.8343359 L2.125,24.3226172 C2.125,23.7738802 2.32787109,23.2965299 2.73361328,22.8905664 C3.13935547,22.4846029 3.61670573,22.2808464 4.16566406,22.2792969 L9.67738281,22.2792969 C10.2270052,22.2792969 10.7047982,22.4826107 11.1107617,22.8892383 L11.1107617,22.8895703 Z M9.46289062,9.46289062 L9.46289062,4.38048828 L4.38048828,4.38048828 L4.38048828,9.46289062 L9.46289062,9.46289062 Z M4.38048828,24.5371094 L4.38048828,29.6205078 L9.46289062,29.6205078 L9.46289062,24.5371094 L4.38048828,24.5371094 Z M5.77501953,8.06835938 L8.06603516,8.06835938 L8.06603516,5.77734375 L5.77734375,5.77734375 L5.77501953,8.06835938 Z M5.77501953,28.2226562 L8.06603516,28.2226562 L8.06603516,25.967832 L5.77734375,25.967832 L5.77501953,28.2226562 Z M15.3707227,24.1054688 L20.8847656,24.1054688 L20.8847656,26.3964844 L17.2324219,26.3964844 L17.2324219,29.6171875 L18.6269531,29.6171875 L18.6269531,27.7910156 L20.8847656,27.7910156 L20.8847656,30.0488281 L19.0585938,30.0488281 L19.0585938,31.875 L16.8031055,31.875 L16.8031055,30.0488281 L13.1152344,30.0488281 L13.1152344,27.7936719 L14.9414062,27.7936719 L14.9414062,26.3964844 L13.1152344,26.3964844 L13.1152344,20.453125 L15.3707227,20.453125 L15.3707227,24.1054688 Z M31.2843164,2.73361328 C31.6781055,3.13979818 31.875,3.61714844 31.875,4.16566406 L31.875,9.67738281 C31.875,10.2270052 31.6781055,10.7043555 31.2843164,11.1094336 C30.8905273,11.5145117 30.4072005,11.7182682 29.8343359,11.7207031 L24.3226172,11.7207031 C23.7732161,11.7207031 23.2958659,11.517832 22.8905664,11.1120898 C22.4852669,10.7063477 22.2815104,10.2285547 22.2792969,9.67871094 L22.2792969,4.16699219 C22.2792969,3.61825521 22.482168,3.14090495 22.8879102,2.73494141 C23.2936523,2.32897786 23.7714453,2.12566406 24.3212891,2.125 L29.8330078,2.125 C30.4067578,2.125 30.8905273,2.32787109 31.2843164,2.73361328 Z M31.2843164,22.8879102 C31.6781055,23.2949805 31.875,23.7727734 31.875,24.3212891 L31.875,29.8330078 C31.875,30.4058724 31.6781055,30.8891992 31.2843164,31.2829883 C30.8905273,31.6767773 30.4072005,31.8741146 29.8343359,31.875 L24.3226172,31.875 C23.7732161,31.875 23.2958659,31.6781055 22.8905664,31.2843164 C22.4852669,30.8905273 22.2815104,30.4072005 22.2792969,29.8343359 L22.2792969,24.3226172 C22.2792969,23.7738802 22.482168,23.2965299 22.8879102,22.8905664 C23.2936523,22.4846029 23.7714453,22.2808464 24.3212891,22.2792969 L29.8330078,22.2792969 C30.4067578,22.2792969 30.8905273,22.4826107 31.2843164,22.8892383 L31.2843164,22.8879102 Z M24.5371094,4.38048828 L24.5371094,9.46289062 L29.6205078,9.46289062 L29.6205078,4.38048828 L24.5371094,4.38048828 Z M24.5371094,24.5347852 L24.5371094,29.6181836 L29.6205078,29.6181836 L29.6205078,24.5371094 L24.5371094,24.5347852 Z M25.9688281,8.06603516 L28.2226562,8.06603516 L28.2226562,5.77734375 L25.967832,5.77734375 L25.9688281,8.06603516 Z M25.9688281,28.220332 L28.2226562,28.220332 L28.2226562,25.967832 L25.967832,25.967832 L25.9688281,28.220332 Z" id="形状" fill="#999999"></path>
                    </g>
                </g>
            </g>
        </g>
    </g>
</svg>