<?xml version="1.0" encoding="UTF-8"?>
<svg width="160px" height="53px" viewBox="0 0 160 53" version="1.1" xmlns="http://www.w3.org/2000/svg" xmlns:xlink="http://www.w3.org/1999/xlink">
    <!-- Generator: Sketch 55 (78076) - https://sketchapp.com -->
    <title>拖入缺省@2x</title>
    <desc>Created with Sketch.</desc>
    <defs>
        <rect id="path-1" x="-7.10542736e-15" y="0" width="115" height="35" rx="4"></rect>
        <filter x="-6.1%" y="-14.3%" width="112.2%" height="140.0%" filterUnits="objectBoundingBox" id="filter-2">
            <feOffset dx="0" dy="2" in="SourceAlpha" result="shadowOffsetOuter1"></feOffset>
            <feGaussianBlur stdDeviation="2" in="shadowOffsetOuter1" result="shadowBlurOuter1"></feGaussianBlur>
            <feComposite in="shadowBlurOuter1" in2="SourceAlpha" operator="out" result="shadowBlurOuter1"></feComposite>
            <feColorMatrix values="0 0 0 0 0   0 0 0 0 0   0 0 0 0 0  0 0 0 0.0949519231 0" type="matrix" in="shadowBlurOuter1"></feColorMatrix>
        </filter>
        <mask id="mask-3" maskContentUnits="userSpaceOnUse" maskUnits="objectBoundingBox" x="0" y="0" width="115" height="35" fill="white">
            <use xlink:href="#path-1"></use>
        </mask>
        <path d="M15.8146667,7.58341673 C15.8070105,7.57576048 15.7990417,7.56857298 15.7912292,7.56138548 L13.7976355,5.56779173 C13.5774581,5.3511716 13.2237987,5.35261166 13.0053927,5.57101767 C12.7869867,5.78942368 12.7855466,6.14308309 13.0021667,6.36326048 L14.0582605,7.41935423 L8.54435423,7.41935423 L8.54435423,1.92107298 L9.60044798,2.97716673 C9.74215302,3.1211988 9.95022195,3.17816323 10.1455317,3.12639796 C10.3408415,3.0746327 10.4933827,2.92209153 10.545148,2.72678174 C10.5969132,2.53147195 10.5399488,2.32340302 10.3959167,2.18169798 L8.40232298,0.188104232 C8.39513548,0.180135482 8.38794798,0.172479232 8.38029173,0.164666732 C8.16003584,-0.0548889108 7.80367262,-0.0548889108 7.58341673,0.164666732 C7.57576048,0.172322982 7.56857298,0.180291732 7.56138548,0.188104232 L5.56779173,2.18169798 C5.3511716,2.40187537 5.35261166,2.75553479 5.57101767,2.97394079 C5.78942368,3.1923468 6.14308309,3.19378687 6.36326048,2.97716673 L7.41935423,1.92107298 L7.41935423,7.41935423 L1.92107298,7.41935423 L2.97716673,6.36326048 C3.19378687,6.14308309 3.1923468,5.78942368 2.97394079,5.57101767 C2.75553479,5.35261166 2.40187537,5.3511716 2.18169798,5.56779173 L0.188104232,7.56138548 C0.180135482,7.56857298 0.172479232,7.57576048 0.164666732,7.58341673 C-0.0548889108,7.80367262 -0.0548889108,8.16003584 0.164666732,8.38029173 C0.172322982,8.38794798 0.180291732,8.39591673 0.188104232,8.40232298 L2.18169798,10.3959167 C2.32340302,10.5399488 2.53147195,10.5969132 2.72678174,10.545148 C2.92209153,10.4933827 3.0746327,10.3408415 3.12639796,10.1455317 C3.17816323,9.95022195 3.1211988,9.74215302 2.97716673,9.60044798 L1.92107298,8.54435423 L7.41935423,8.54435423 L7.41935423,14.0582605 L6.36326048,13.0021667 C6.14308309,12.7855466 5.78942368,12.7869867 5.57101767,13.0053927 C5.35261166,13.2237987 5.3511716,13.5774581 5.56779173,13.7976355 L7.56138548,15.7912292 C7.56857298,15.799198 7.57576048,15.8068542 7.58341673,15.8146667 C7.80367262,16.0342224 8.16003584,16.0342224 8.38029173,15.8146667 C8.38794798,15.8070105 8.39591673,15.7990417 8.40232298,15.7912292 L10.3959167,13.7976355 C10.5399488,13.6559304 10.5969132,13.4478615 10.545148,13.2525517 C10.4933827,13.0572419 10.3408415,12.9047008 10.1455317,12.8529355 C9.95022195,12.8011702 9.74215302,12.8581347 9.60044798,13.0021667 L8.54435423,14.0582605 L8.54435423,8.54435423 L14.0582605,8.54435423 L13.0021667,9.60044798 C12.8581347,9.74215302 12.8011702,9.95022195 12.8529355,10.1455317 C12.9047008,10.3408415 13.0572419,10.4933827 13.2525517,10.545148 C13.4478615,10.5969132 13.6559304,10.5399488 13.7976355,10.3959167 L15.7912292,8.40232298 C15.799198,8.39513548 15.8068542,8.38794798 15.8146667,8.38029173 C16.0342224,8.16003584 16.0342224,7.80367262 15.8146667,7.58341673 Z" id="path-4"></path>
        <filter x="-3.1%" y="-3.1%" width="106.3%" height="112.5%" filterUnits="objectBoundingBox" id="filter-5">
            <feOffset dx="0" dy="1" in="SourceAlpha" result="shadowOffsetOuter1"></feOffset>
            <feColorMatrix values="0 0 0 0 0.895190481   0 0 0 0 0.914387805   0 0 0 0 0.962381114  0 0 0 1 0" type="matrix" in="shadowOffsetOuter1"></feColorMatrix>
        </filter>
        <linearGradient x1="21.2391184%" y1="48.9886864%" x2="97.3340956%" y2="51.5493558%" id="linearGradient-6">
            <stop stop-color="#F6F9FF" offset="0%"></stop>
            <stop stop-color="#17BC94" offset="100%"></stop>
        </linearGradient>
    </defs>
    <g id="迭代19" stroke="none" stroke-width="1" fill="none" fill-rule="evenodd">
        <g id="新建表单-控件拖动" transform="translate(-580.000000, -389.000000)">
            <g id="拖入缺省" transform="translate(584.000000, 391.000000)">
                <path d="M45,15 L151,15 C153.209139,15 155,16.790861 155,19 L155,46 C155,48.209139 153.209139,50 151,50 L45,50 C42.790861,50 41,48.209139 41,46 L41,19 C41,16.790861 42.790861,15 45,15 Z" id="Rectangle-Copy" stroke-opacity="0.198016827" stroke="#17BC94" fill="#E8FCF4" stroke-linejoin="round" stroke-dasharray="3"></path>
                <g id="Rectangle" stroke-dasharray="3">
                    <use fill="black" fill-opacity="1" filter="url(#filter-2)" xlink:href="#path-1"></use>
                    <use stroke="#17BC94" mask="url(#mask-3)" stroke-width="2" fill="#FFFFFF" fill-rule="evenodd" xlink:href="#path-1"></use>
                </g>
                <g id="move-o" transform="translate(33.000000, 14.000000)" fill-rule="nonzero">
                    <g id="Path">
                        <use fill="black" fill-opacity="1" filter="url(#filter-5)" xlink:href="#path-4"></use>
                        <use fill="#17BC94" xlink:href="#path-4"></use>
                    </g>
                </g>
                <g id="Group-3" transform="translate(107.500000, 19.000000) rotate(13.000000) translate(-107.500000, -19.000000) translate(82.000000, 13.000000)" fill="url(#linearGradient-6)">
                    <path d="M45.3660156,4.22542037 L46.8259659,1.7087682 C46.9617264,1.47474527 47.1865176,1.30571779 47.4490317,1.24026567 C47.9849112,1.1066559 48.5276395,1.43275997 48.6612493,1.96863951 L50.2911783,8.50592786 C50.4247881,9.04180739 50.098684,9.58453571 49.5628045,9.71814548 L43.2235909,11.298689 C42.9714202,11.3615622 42.7046779,11.3237921 42.4798758,11.1933808 C42.0021563,10.9162481 41.8395486,10.3043195 42.1166814,9.82660002 L43.5102245,7.42442015 C40.1840396,6.11799255 35.9731494,5.07302569 30.877554,4.28951956 C23.5659435,3.16527578 13.5854006,4.59810768 0.935925162,8.58801527 C3.68227573,7.43847734 8.74835839,5.50604601 16.1341731,2.79072128 C27.2128952,-1.28226582 34.4456652,0.938677069 39.3743849,2.03360452 C42.2214735,2.66609237 44.0392427,3.49508608 45.3660156,4.22542037 Z" id="Combined-Shape"></path>
                </g>
            </g>
        </g>
    </g>
</svg>