<?xml version="1.0" encoding="UTF-8"?>
<svg width="45px" height="45px" viewBox="0 0 45 45" version="1.1" xmlns="http://www.w3.org/2000/svg" xmlns:xlink="http://www.w3.org/1999/xlink">
    <!-- Generator: Sketch 59.1 (86144) - https://sketch.com -->
    <title>未启用</title>
    <desc>Created with Sketch.</desc>
    <defs>
        <rect id="path-1" x="0" y="0" width="54" height="54"></rect>
        <filter x="-12.2%" y="-300.0%" width="124.5%" height="700.0%" filterUnits="objectBoundingBox" id="filter-3">
            <feGaussianBlur stdDeviation="2" in="SourceGraphic"></feGaussianBlur>
        </filter>
    </defs>
    <g id="迭代24" stroke="none" stroke-width="1" fill="none" fill-rule="evenodd">
        <g id="目录、模型页面-" transform="translate(-888.000000, -657.000000)">
            <g id="未启用" transform="translate(888.000000, 657.000000)">
                <mask id="mask-2" fill="white">
                    <use xlink:href="#path-1"></use>
                </mask>
                <use id="矩形" fill-opacity="0" fill="#D8D8D8" fill-rule="nonzero" transform="translate(27.000000, 27.000000) scale(-1, 1) translate(-27.000000, -27.000000) " xlink:href="#path-1"></use>
                <path d="M4,40 L4,45 L0,45 L0,40 L4,40 Z M45,0 L45,4 L32,4 L32,0 L45,0 Z" id="Combined-Shape" fill-opacity="0.500519012" fill="#000000" fill-rule="nonzero" mask="url(#mask-2)"></path>
                <rect id="矩形" fill="#999999" fill-rule="nonzero" filter="url(#filter-3)" mask="url(#mask-2)" transform="translate(22.675884, 21.637825) scale(-1, 1) rotate(45.000000) translate(-22.675884, -21.637825) " x="-1.82411614" y="20.6378246" width="49" height="2"></rect>
                <path d="M44.6998291,-2.94875235e-13 L3.58824082e-13,44.705719 L-3.01980663e-13,22.1026001 L22.0792236,-2.10853557e-12 L44.6998291,-2.94875235e-13 Z M9.79482577,18.5804015 L7.36944951,21.0057778 L6.40071322,20.0370415 L5.8774542,20.5603005 L6.84619049,21.5290368 L4.4703117,23.9049156 L4.96528645,24.3998903 L7.34116524,22.0240115 L8.59274424,23.2755905 L5.79260138,26.0757334 L6.28757613,26.5707081 L8.62809958,24.2301847 C9.08771898,25.7080379 9.05943471,27.3202413 8.55031783,29.0738661 L9.31399315,29.2577139 C9.76654149,27.3060992 9.67461761,25.5029769 9.02407937,23.8342049 L9.08771898,23.7705653 L12.3121259,26.9949722 L12.8353849,26.4717132 L9.610978,23.2473063 L9.66754655,23.1907377 C11.1807551,23.7705653 12.9626641,23.8695602 15.0132738,23.5160068 L14.9142789,22.7099051 C13.054588,23.1695245 11.4423846,23.1978088 10.0776685,22.7806158 L12.4111209,20.4471634 L11.9161461,19.9521887 L9.11600326,22.7523315 L7.86442425,21.5007525 L10.2898005,19.0753763 L9.79482577,18.5804015 Z M16.6608326,11.2477042 L14.3910198,13.517517 C13.9667558,13.3195271 13.5849181,13.1498214 13.2384358,13.0154711 L12.7929585,13.630654 C13.1465119,13.729649 13.5071364,13.8639993 13.8748319,14.0337049 L11.5201663,16.3883705 L13.888974,18.7571782 C15.1122688,19.9946151 15.8335177,21.2674073 16.0597918,22.596768 L16.809325,22.5543416 C16.4981981,20.9987067 15.6850253,19.5632799 14.3910198,18.2551324 L14.0869639,17.9510765 L18.7255844,13.312456 L16.6608326,11.2477042 Z M19.6094679,14.351903 L15.5082486,18.4531223 L18.2306097,21.1754834 L18.7255844,20.6805087 L18.3578889,20.3128131 L21.4691587,17.2015433 L21.8368542,17.5692388 L22.331829,17.0742641 L19.6094679,14.351903 Z M19.5953258,15.3277103 L20.9883261,16.7207107 L17.8770563,19.8319805 L16.4840559,18.4389802 L19.5953258,15.3277103 Z M16.6396194,12.2305826 L17.7497771,13.3407403 L13.6132024,17.4773149 L12.5030447,16.3671573 L16.6396194,12.2305826 Z M23.2652099,3.68166163 L17.9972644,8.94960715 L21.391377,12.3437197 C22.3459711,13.3265981 22.9116566,14.358974 23.0884333,15.4408474 L23.8238243,15.398421 C23.6824029,14.351903 23.1944993,13.3407403 22.3671843,12.3578618 L24.1915198,10.5335263 L26.2633427,12.6053492 L26.7866017,12.0820902 L24.7147788,10.0102673 L26.6381093,8.08693688 L27.8684751,9.31730268 C28.1654599,9.61428753 28.1796021,9.89713024 27.9250436,10.1516887 C27.6846273,10.392105 27.4088557,10.6395924 27.1118708,10.9082929 L27.7482669,11.2759885 L28.5614397,10.4628157 C29.0564145,9.96784092 29.0564145,9.47286617 28.5614397,8.97789142 L23.2652099,3.68166163 Z M22.4873925,8.829399 L23.7248294,10.0668359 L21.9287781,11.8628871 L20.6913413,10.6254502 L22.4873925,8.829399 Z M20.7974073,7.13941379 L22.0136309,8.35563746 L20.2175797,10.1516887 L19.0013561,8.93546502 L20.7974073,7.13941379 Z M24.933982,6.38280954 L26.1714188,7.6202464 L24.2480884,9.54357685 L23.0106515,8.30613998 L24.933982,6.38280954 Z M23.2439967,4.69282433 L24.4602204,5.90904799 L22.53689,7.83237844 L21.3206663,6.61615477 L23.2439967,4.69282433 Z" id="Combined-Shape" fill="#999999" fill-rule="nonzero" mask="url(#mask-2)"></path>
            </g>
        </g>
    </g>
</svg>