<?xml version="1.0" encoding="UTF-8"?>
<svg width="16px" height="16px" viewBox="0 0 16 16" version="1.1" xmlns="http://www.w3.org/2000/svg" xmlns:xlink="http://www.w3.org/1999/xlink">
    <!-- Generator: Sketch 51.3 (57544) - http://www.bohemiancoding.com/sketch -->
    <title>question-circle-o</title>
    <desc>Created with Sketch.</desc>
    <defs></defs>
    <g id="顶部栏样式" stroke="none" stroke-width="1" fill="none" fill-rule="evenodd">
        <g id="顶部状态栏_有客服-新版logo" transform="translate(-1194.000000, -1737.000000)" fill-rule="nonzero">
            <g id="Group-19" transform="translate(0.000000, 1682.000000)">
                <g id="模板中心-copy-8" transform="translate(0.000000, 35.000000)">
                    <g id="5" transform="translate(959.000000, 17.000000)">
                        <g id="question-circle-o" transform="translate(235.000000, 3.000000)">
                            <rect id="Rectangle-path" fill="#000000" opacity="0" x="0" y="0" width="16" height="16"></rect>
                            <path d="M14.9296875,3.984375 C15.6432292,5.21354167 16,6.55208333 16,8 C16,9.44791667 15.6432292,10.7864583 14.9296875,12.015625 C14.2161458,13.2447917 13.2447917,14.2161458 12.015625,14.9296875 C10.7864583,15.6432292 9.44791667,16 8,16 C6.55208333,16 5.21354167,15.6432292 3.984375,14.9296875 C2.75520833,14.2161458 1.78385417,13.2447917 1.0703125,12.015625 C0.356770833,10.7864583 0,9.44791667 0,8 C0,6.55208333 0.356770833,5.21354167 1.0703125,3.984375 C1.78385417,2.75520833 2.75520833,1.78385417 3.984375,1.0703125 C5.21354167,0.356770833 6.55208333,0 8,0 C9.44791667,0 10.7864583,0.356770833 12.015625,1.0703125 C13.2447917,1.78385417 14.2161458,2.75520833 14.9296875,3.984375 Z M14.34375,10.671875 C14.6979167,9.828125 14.875,8.9375 14.875,8 C14.875,7.0625 14.6927083,6.171875 14.328125,5.328125 C13.987139,4.50947672 13.4880306,3.76612368 12.859375,3.140625 C12.2317393,2.51062154 11.4891794,2.00674165 10.671875,1.65625 C9.828125,1.30208333 8.9375,1.125 8,1.125 C7.0625,1.125 6.171875,1.30729167 5.328125,1.671875 C4.50943582,2.01278483 3.7660687,2.51190276 3.140625,3.140625 C2.51051988,3.7681765 2.00662584,4.51075719 1.65625,5.328125 C1.30208333,6.171875 1.125,7.0625 1.125,8 C1.125,8.9375 1.30729167,9.828125 1.671875,10.671875 C2.01272678,11.4905954 2.51185192,12.2339732 3.140625,12.859375 C3.76811946,13.489549 4.51071428,13.9934526 5.328125,14.34375 C6.171875,14.6979167 7.0625,14.875 8,14.875 C8.9375,14.875 9.828125,14.6927083 10.671875,14.328125 C11.4905525,13.9871934 12.2339156,13.4880782 12.859375,12.859375 C13.4894472,12.2317962 13.9933367,11.4892223 14.34375,10.671875 Z M8.296875,10.2265625 C8.39998122,10.1295508 8.46624716,9.99977996 8.484375,9.859375 C8.50520833,9.56770833 8.82291667,9.11979167 9.4375,8.515625 C9.95833333,7.984375 10.3098958,7.546875 10.4921875,7.203125 C10.6727327,6.86529817 10.7767532,6.49189119 10.796875,6.109375 C10.8385417,5.38020833 10.5989583,4.73958333 10.078125,4.1875 C9.515625,3.59375 8.81770833,3.296875 7.984375,3.296875 C7.21354167,3.30729167 6.5546875,3.5859375 6.0078125,4.1328125 C5.4609375,4.6796875 5.1875,5.33854167 5.1875,6.109375 C5.1875,6.42003517 5.43933983,6.671875 5.75,6.671875 C6.06066017,6.671875 6.3125,6.42003517 6.3125,6.109375 C6.3125,5.65104167 6.4765625,5.25520833 6.8046875,4.921875 C7.1328125,4.58854167 7.53125,4.421875 8,4.421875 C8.5,4.421875 8.921875,4.60416667 9.265625,4.96875 C9.55729167,5.28125 9.69270833,5.640625 9.671875,6.046875 C9.671875,6.19270833 9.65885417,6.31510417 9.6328125,6.4140625 C9.60677083,6.51302083 9.51302083,6.67708333 9.3515625,6.90625 C9.19010417,7.13541667 8.953125,7.40625 8.640625,7.71875 C8.24479167,8.10416667 7.94010417,8.453125 7.7265625,8.765625 C7.51302083,9.078125 7.390625,9.40625 7.359375,9.75 C7.33622389,9.89850376 7.37902016,10.0497173 7.4765625,10.1640625 C7.57164671,10.2817609 7.70908406,10.3574916 7.859375,10.375 L7.921875,10.375 C8.06165257,10.3774224 8.19662381,10.3239962 8.296875,10.2265625 Z M7.8984375,12.6875 C8.08072917,12.6875 8.23958333,12.6223958 8.375,12.4921875 C8.50476396,12.3676119 8.578117,12.1955076 8.578117,12.015625 C8.578117,11.8357424 8.50476396,11.6636381 8.375,11.5390625 C8.23958333,11.4088542 8.08072917,11.34375 7.8984375,11.34375 C7.71614583,11.34375 7.55729167,11.4088542 7.421875,11.5390625 C7.29211104,11.6636381 7.218758,11.8357424 7.218758,12.015625 C7.218758,12.1955076 7.29211104,12.3676119 7.421875,12.4921875 C7.54802601,12.618691 7.71979062,12.6890864 7.8984375,12.6875 Z" id="Shape" fill="#CCCCCC"></path>
                        </g>
                    </g>
                </g>
            </g>
        </g>
    </g>
</svg>