<?xml version="1.0" encoding="UTF-8"?>
<svg width="14px" height="30px" viewBox="0 0 14 30" version="1.1" xmlns="http://www.w3.org/2000/svg" xmlns:xlink="http://www.w3.org/1999/xlink">
    <!-- Generator: Sketch 52.2 (67145) - http://www.bohemiancoding.com/sketch -->
    <title>向左</title>
    <desc>Created with Sketch.</desc>
    <g id="组织机构" stroke="none" stroke-width="1" fill="none" fill-rule="evenodd">
        <g id="查看用户信息" transform="translate(-224.000000, -64.000000)" fill="#C4C4C4" fill-rule="nonzero">
            <g id="Group-4-Copy-4" transform="translate(231.000000, 95.500000) scale(-1, 1) translate(-231.000000, -95.500000) translate(224.000000, 64.000000)">
                <path d="M2.90111549,3.17110986 L14,-1.24344979e-14 L14,30 L2.90111549,26.8288901 C1.18390926,26.3382598 -1.55764454e-15,24.7687158 -1.77635684e-15,22.9827943 L0,7.01720565 C-2.18712297e-16,5.23128421 1.18390926,3.66174021 2.90111549,3.17110986 Z M4.13533471,19.1161165 C3.95488843,19.3183171 3.95488843,19.646149 4.13533471,19.8483496 C4.31578099,20.0505501 4.60834222,20.0505501 4.78878851,19.8483496 L9.86466529,15.3661165 C10.0451116,15.163916 10.0451116,14.836084 9.86466529,14.6338835 L4.78878851,10.1516504 C4.60834222,9.94944986 4.31578099,9.94944986 4.13533471,10.1516504 C3.95488843,10.353851 3.95488843,10.6816829 4.13533471,10.8838835 L8.8844846,15 L4.13533471,19.1161165 Z" id="向左"></path>
            </g>
        </g>
    </g>
</svg>