<?xml version="1.0" encoding="UTF-8"?>
<svg width="14px" height="30px" viewBox="0 0 14 30" version="1.1" xmlns="http://www.w3.org/2000/svg" xmlns:xlink="http://www.w3.org/1999/xlink">
    <!-- Generator: Sketch 52.2 (67145) - http://www.bohemiancoding.com/sketch -->
    <title>向右</title>
    <desc>Created with Sketch.</desc>
    <g id="组织机构" stroke="none" stroke-width="1" fill="none" fill-rule="evenodd">
        <g id="查看用户信息" transform="translate(-224.000000, -97.000000)" fill="#D4D4D4" fill-rule="nonzero">
            <g id="Group-4-Copy-4" transform="translate(231.000000, 95.500000) scale(-1, 1) translate(-231.000000, -95.500000) translate(224.000000, 64.000000)">
                <path d="M2.90111549,36.1711099 L14,33 L14,63 L2.90111549,59.8288901 C1.18390926,59.3382598 2.18712297e-16,57.7687158 0,55.9827943 L1.77635684e-15,40.0172057 C1.55764454e-15,38.2312842 1.18390926,36.6617402 2.90111549,36.1711099 Z M9.86466529,43.8838835 C10.0451116,43.6816829 10.0451116,43.353851 9.86466529,43.1516504 C9.68421901,42.9494499 9.39165778,42.9494499 9.21121149,43.1516504 L4.13533471,47.6338835 C3.95488843,47.836084 3.95488843,48.163916 4.13533471,48.3661165 L9.21121149,52.8483496 C9.39165778,53.0505501 9.68421901,53.0505501 9.86466529,52.8483496 C10.0451116,52.646149 10.0451116,52.3183171 9.86466529,52.1161165 L5.1155154,48 L9.86466529,43.8838835 Z" id="向右"></path>
            </g>
        </g>
    </g>
</svg>