<?xml version="1.0" encoding="UTF-8"?>
<svg width="45px" height="45px" viewBox="0 0 45 45" version="1.1" xmlns="http://www.w3.org/2000/svg" xmlns:xlink="http://www.w3.org/1999/xlink">
    <!-- Generator: Sketch 59.1 (86144) - https://sketch.com -->
    <title>未发布</title>
    <desc>Created with Sketch.</desc>
    <defs>
        <rect id="path-1" x="0" y="0" width="54" height="54"></rect>
        <filter x="-12.2%" y="-300.0%" width="124.5%" height="700.0%" filterUnits="objectBoundingBox" id="filter-3">
            <feGaussianBlur stdDeviation="2" in="SourceGraphic"></feGaussianBlur>
        </filter>
    </defs>
    <g id="迭代24" stroke="none" stroke-width="1" fill="none" fill-rule="evenodd">
        <g id="目录、模型页面-" transform="translate(-888.000000, -557.000000)">
            <g id="未发布" transform="translate(888.000000, 557.000000)">
                <mask id="mask-2" fill="white">
                    <use xlink:href="#path-1"></use>
                </mask>
                <use id="矩形" fill-opacity="0" fill="#D8D8D8" fill-rule="nonzero" transform="translate(27.000000, 27.000000) scale(-1, 1) translate(-27.000000, -27.000000) " xlink:href="#path-1"></use>
                <path d="M4,40 L4,45 L0,45 L0,40 L4,40 Z M45,0 L45,4 L32,4 L32,0 L45,0 Z" id="Combined-Shape" fill-opacity="0.500519012" fill="#000000" fill-rule="nonzero" mask="url(#mask-2)"></path>
                <rect id="矩形" fill="#999999" fill-rule="nonzero" filter="url(#filter-3)" mask="url(#mask-2)" transform="translate(22.675884, 21.637825) scale(-1, 1) rotate(45.000000) translate(-22.675884, -21.637825) " x="-1.82411614" y="20.6378246" width="49" height="2"></rect>
                <path d="M44.6998291,-2.38031816e-13 L3.0908609e-13,44.705719 L-3.51718654e-13,22.1026001 L22.0792236,-2.05169215e-12 L44.6998291,-2.38031816e-13 Z M9.8703714,18.7527848 L7.44499514,21.1781611 L6.47625885,20.2094248 L5.95299983,20.7326838 L6.92173612,21.7014201 L4.54585734,24.0772989 L5.04083209,24.5722736 L7.41671087,22.1963948 L8.66828987,23.4479738 L5.86814702,26.2481167 L6.36312177,26.7430914 L8.70364521,24.402568 C9.16326462,25.8804212 9.13498035,27.4926246 8.62586347,29.2462494 L9.38953879,29.4300972 C9.84208713,27.4784825 9.75016325,25.6753602 9.09962501,24.0065882 L9.16326462,23.9429486 L12.3876715,27.1673555 L12.9109306,26.6440965 L9.68652364,23.4196896 L9.74309218,23.363121 C11.2563007,23.9429486 13.0382098,24.0419435 15.0888194,23.6883901 L14.9898245,22.8822884 C13.1301337,23.3419078 11.5179302,23.3701921 10.1532141,22.9529991 L12.4866665,20.6195467 L11.9916917,20.124572 L9.19154889,22.9247148 L7.93996989,21.6731358 L10.3653461,19.2477596 L9.8703714,18.7527848 Z M17.9526019,12.0423415 L14.6433422,15.3516012 C14.2473624,14.701063 13.8089562,14.0363826 13.3069104,13.350489 L12.7270828,13.8030373 C13.2503418,14.496002 13.7099612,15.1818956 14.1200832,15.8748602 L12.8826463,17.1122971 L11.8926968,15.3162459 L11.3057982,15.7334389 L12.7129407,18.2578101 L14.4665655,16.5041852 C15.5484389,18.5760081 16.0292715,20.5700492 15.9019922,22.5075218 L16.6303122,22.7125828 C16.7788047,21.2488717 16.5596016,19.7003079 15.9585608,18.0668912 C16.6868808,18.3285207 17.5354089,18.3992314 18.5112163,18.2719522 C18.3273685,19.1487646 17.9879572,20.124572 17.4859114,21.2064453 L18.2283736,21.4115063 C18.7516326,20.2235669 19.105186,19.1346225 19.2748916,18.144673 C20.25777,17.939612 21.3679277,17.5507033 22.6053645,16.9779468 L22.3932325,16.2425557 C21.2901459,16.7799569 20.2789832,17.1688656 19.3668155,17.4022109 C19.4516683,16.3274086 19.2819627,15.3940276 18.8647697,14.5949969 L18.4263635,14.1565907 L15.5342967,17.0486575 C15.3787332,16.6951041 15.1948855,16.3415507 14.9968956,15.9738552 L18.4405056,12.5302451 L17.9526019,12.0423415 Z M18.376866,15.1394692 C18.6597087,15.8182917 18.7445615,16.6243934 18.6314244,17.5577743 C17.6556171,17.7133378 16.8070889,17.6709114 16.08584,17.4304951 L18.376866,15.1394692 Z M24.3589893,4.10860337 L20.9295215,7.53807126 C20.781029,7.13502039 20.5971813,6.72489846 20.3850492,6.31477653 L20.3850492,6.31477653 L19.8052217,6.76732487 C20.0244248,7.19866001 20.2082725,7.63706621 20.363836,8.10375668 L20.363836,8.10375668 L18.2071604,10.2604324 L18.7021351,10.7554071 L20.5901102,8.86743201 C20.9365925,10.2462902 20.98609,11.7100013 20.7527448,13.2727073 L20.7527448,13.2727073 L21.502278,13.3717022 C21.6012729,12.6363112 21.6436993,11.9150622 21.6366282,11.2008844 L21.6366282,11.2008844 L24.3448472,13.9091034 L24.8327509,13.4211997 L22.2164558,10.8049046 L23.7296643,9.29169608 L27.0177108,12.5797426 L27.5056145,12.0918389 L24.217568,8.8037924 L25.7237054,7.29765495 L27.5197567,9.09370618 C27.7248176,9.29876715 27.7177466,9.51797025 27.4914724,9.74424442 L27.4914724,9.74424442 L26.8480052,10.3594273 L27.449046,10.7059096 L28.1137264,10.0412293 C28.5521326,9.60282306 28.5521326,9.15027472 28.1137264,8.71186852 L28.1137264,8.71186852 L25.7378476,6.33598973 L23.7438064,8.33003085 L22.8811362,7.46736058 L22.3932325,7.95526426 L23.2559028,8.81793453 L21.5942018,10.4796355 C21.5305622,9.73717335 21.3891409,9.0017823 21.1770088,8.28053338 L21.1770088,8.28053338 L24.8539641,4.60357812 L24.3589893,4.10860337 Z M14.4877787,12.1554785 L14.4807076,12.82723 C15.4353018,12.721164 16.2484746,12.6999508 16.920226,12.7777325 L16.920226,12.0564836 C16.191906,12.0069861 15.3858043,12.0352704 14.4877787,12.1554785 Z" id="Combined-Shape" fill="#999999" fill-rule="nonzero" mask="url(#mask-2)"></path>
            </g>
        </g>
    </g>
</svg>