<?xml version="1.0" encoding="UTF-8"?>
<svg width="140px" height="141px" viewBox="0 0 140 141" version="1.1" xmlns="http://www.w3.org/2000/svg" xmlns:xlink="http://www.w3.org/1999/xlink">
    <!-- Generator: Sketch 59.1 (86144) - https://sketch.com -->
    <title>logo</title>
    <desc>Created with Sketch.</desc>
    <defs>
        <polygon id="path-1" points="3.21839081e-05 0.216951724 139.685563 0.216951724 139.685563 78.8386989 3.21839081e-05 78.8386989"></polygon>
        <polygon id="path-3" points="0 140.321839 139.685563 140.321839 139.685563 0 0 0"></polygon>
    </defs>
    <g id="移动端-更新与20191029" stroke="none" stroke-width="1" fill="none" fill-rule="evenodd">
        <g id="Artboard-Copy-4" transform="translate(-305.000000, -150.000000)">
            <g id="logo" transform="translate(305.000000, 150.000000)">
                <polygon id="Fill-4" fill="#012332" points="98.8801977 100.719605 98.8801977 97.7075126 98.8801977 87.3233747 45.0957379 87.2776736 40.805623 84.3112828 40.805623 87.3233747 40.805623 97.752892 94.5897609 97.752892"></polygon>
                <g id="分组">
                    <g transform="translate(0.000000, 61.471264)">
                        <mask id="mask-2" fill="white">
                            <use xlink:href="#path-1"></use>
                        </mask>
                        <g id="Clip-6"></g>
                        <path d="M115.592078,20.6901011 C114.580216,20.5105149 113.652354,21.2925839 113.652354,22.3250437 L113.652354,32.056492 L113.652354,47.9518023 L113.652354,48.2408138 C113.652354,50.0749747 112.172538,51.5615494 110.346423,51.5615494 L110.058699,51.5615494 L29.6269287,51.5615494 L29.3392046,51.5615494 C27.5130897,51.5615494 26.0332736,50.0749747 26.0332736,48.2408138 L26.0332736,47.9518023 L26.0332736,7.61410115 C26.0332736,6.00265287 24.8814115,4.62357241 23.3018253,4.34389425 L3.21839081e-05,0.216951724 L3.21839081e-05,78.8386989 L139.685595,78.8386989 L139.685595,40.1546069 L139.685595,25.2431586 L139.685595,24.9573655 L115.592078,20.6901011 Z" id="Fill-5" fill="#012332" mask="url(#mask-2)"></path>
                    </g>
                    <mask id="mask-4" fill="white">
                        <use xlink:href="#path-3"></use>
                    </mask>
                    <g id="Clip-8"></g>
                    <polygon id="Fill-7" fill="#17BC94" mask="url(#mask-4)" points="33.4297471 76.9591264 106.255816 76.9591264 106.255816 63.3852414 33.4297471 63.3852414"></polygon>
                    <polygon id="Fill-9" fill="#17BC94" mask="url(#mask-4)" points="91.8959034 42.6370805 47.7897885 42.6370805 47.7897885 53.0665977 88.5976966 53.0665977 91.8959034 53.0665977"></polygon>
                    <path d="M0,0 L0,40.1709885 L0,53.3251954 L0,53.8813333 L24.0931954,58.1485977 C25.1053793,58.3278621 26.0332414,57.5457931 26.0332414,56.5136552 L26.0332414,48.8217011 L26.0332414,30.1125517 L26.0332414,29.8235402 C26.0332414,27.9897011 27.5130575,26.5031264 29.3391724,26.5031264 L29.6268966,26.5031264 L110.058667,26.5031264 L110.346391,26.5031264 C112.172506,26.5031264 113.652322,27.9897011 113.652322,29.8235402 L113.652322,30.1125517 L113.652322,71.2245977 C113.652322,72.836046 114.803862,74.2148046 116.384092,74.4948046 L139.685563,78.6217471 L139.685563,0 L0,0 Z" id="Fill-10" fill="#17BC94" mask="url(#mask-4)"></path>
                </g>
            </g>
        </g>
    </g>
</svg>